<mxfile host="app.diagrams.net" modified="2024-06-07T09:20:48.036Z" agent="Mozilla/5.0 (Windows NT 10.0; Win64; x64) AppleWebKit/537.36 (KHTML, like Gecko) Chrome/122.0.0.0 Safari/537.36 Edg/122.0.0.0" version="24.5.1" etag="42R8dMFPRLJ6T24JlLEw" type="github">
  <diagram name="第 1 页" id="vTxo5R0DQHP_XSmCNJD1">
    <mxGraphModel>
      <root>
        <mxCell id="0" />
        <mxCell id="1" parent="0" />
      </root>
    </mxGraphModel>
  </diagram>
</mxfile>
